<?xml version="1.0" encoding="UTF-8" standalone="no"?><!DOCTYPE svg PUBLIC "-//W3C//DTD SVG 1.1//EN" "http://www.w3.org/Graphics/SVG/1.1/DTD/svg11.dtd"><svg width="100%" height="100%" viewBox="0 0 512 512" version="1.1" xmlns="http://www.w3.org/2000/svg" xmlns:xlink="http://www.w3.org/1999/xlink" xml:space="preserve" xmlns:serif="http://www.serif.com/" style="fill-rule:evenodd;clip-rule:evenodd;stroke-linejoin:round;stroke-miterlimit:2;"><g><clipPath id="_clip1"><circle cx="257" cy="257" r="237"/></clipPath><g clip-path="url(#_clip1)"><circle cx="257" cy="257" r="237" style="fill:#080605;"/><path d="M259.376,493.831c-14.934,-35.903 -43.982,-92.66 -42.376,-181.831c0.055,-114.505 -23.475,-187.663 73,-197c108.127,-10.45 187.826,75.951 205,158c17.174,82.049 -94.442,240.496 -235.624,220.831Z" style="fill:#fe8800;"/><path d="M11.178,199.281c37.532,62.977 223.509,128.698 241.822,115.719c12.79,-9.065 -11,-63.333 -4,-86c7,-22.667 38.025,-28.804 46,-50c12.417,-33 -29.847,-148.544 -37.5,-160c-35.185,-1.153 -280.487,9.97 -246.322,180.281Z" style="fill:#fff;"/><path d="M352.418,190.684c16.292,3.033 25.747,25.759 21.101,50.718c-4.647,24.959 -21.646,42.761 -37.937,39.728c-16.292,-3.033 -25.747,-25.759 -21.101,-50.718c4.647,-24.959 21.646,-42.761 37.937,-39.728Z" style="fill:#fff;"/><path d="M190.875,196.013c6.897,2.065 10.312,11.039 7.621,20.027c-2.691,8.989 -10.475,14.61 -17.371,12.545c-6.897,-2.064 -10.312,-11.038 -7.621,-20.026c2.691,-8.989 10.475,-14.61 17.371,-12.546Z" style="fill:#080605;"/><path d="M340.417,222.196c6.451,1.841 9.74,10.162 7.34,18.57c-2.4,8.408 -9.586,13.739 -16.037,11.898c-6.451,-1.842 -9.74,-10.163 -7.34,-18.57c2.399,-8.408 9.585,-13.739 16.037,-11.898Z" style="fill:#080605;"/><path d="M120,332c1.909,-10.309 62.615,22.19 111,29c86.504,19.136 128.639,-5.624 137,5c-10.431,15.307 -75.405,42.722 -137,32c-61.595,-10.722 -104.984,-51.024 -111,-66Z" style="fill:#fff;"/></g></g></svg>